<svg width="25" height="50" viewBox="0 0 25 50" fill="none" xmlns="http://www.w3.org/2000/svg">
<path fill-rule="evenodd" clip-rule="evenodd" d="M3 19.2823C2.99995 21.1526 5.87234 23.655 6.93617 24.7087C8 25.7624 10.9176 28.2122 11.7234 29.6873C12.3484 30.8318 12.2553 34.7713 12.2553 38.1431C12.2553 41.5149 12.2553 43.6749 11.617 44.7813C11.1064 45.6664 9.17021 46.0281 8.26596 46.0984C6.79433 46.2915 3.85106 46.7306 3.85106 47.995C3.85106 49.4174 9.2234 50.0497 13 49.997C16.7766 50.0497 22.1489 49.4174 22.1489 47.995C22.1489 46.7306 19.2057 46.2915 17.734 46.0984C16.8298 46.0281 14.8936 45.6664 14.383 44.7813C13.7447 43.6749 13.7447 41.5149 13.7447 38.1431C13.7447 34.7713 13.6516 30.8318 14.2766 29.6873C15.0824 28.2122 18 25.7624 19.0638 24.7087C20.1277 23.655 23.0001 21.1526 23 19.2823C23 17.9547 21.0319 5.92693 20.0213 0.105368C20.0213 0.105368 15.7423 0 13 0C10.2577 0 5.97872 0.105368 5.97872 0.105368C4.96809 5.92693 3 17.9547 3 19.2823ZM4 19.2823C3.95369 17.7263 5.5886 6.7088 6.56378 1.10537C6.56378 1.10537 10.4862 1 13 1C15.5138 1 19.4362 1.10537 19.4362 1.10537C20.4114 6.7088 22.0463 17.7263 22 19.2823C21.9468 21.0694 16.8297 25 13 25C9.17027 25 4.05319 21.0694 4 19.2823Z" fill="#FDFDFD"/>
</svg>
