<svg width="25" height="50" viewBox="0 0 25 50" fill="none" xmlns="http://www.w3.org/2000/svg">
<g clip-path="url(#clip0)">
<path fill-rule="evenodd" clip-rule="evenodd" d="M0.282525 5.5218C0.0463718 5.53325 -0.0978293 5.78524 -0.000457948 5.99999C0.638639 7.40954 1.01999 8.91854 1.04295 9.85266C1.12406 13.1521 0.393843 13.0554 0.393843 16.1934C0.393843 20.0755 4.09377 22.1783 6.69021 22.9871C11.1366 26.1898 11.5261 29.7807 11.5261 41.1035C11.4936 42.3113 11.2535 45.005 10.5524 46.1179C10.0837 46.862 6.6253 46.7449 5.42445 46.862C4.42915 46.959 2.34117 47.3084 1.95171 47.9295C1.56224 48.5507 2.37363 48.9863 2.82801 49.1265C3.28239 49.2667 6.43057 49.8706 12.6296 50C19.1531 49.8706 21.9768 49.2667 22.4311 49.1265C22.8855 48.9863 23.6969 48.5506 23.3074 47.9295C22.918 47.3084 20.83 46.959 19.8347 46.8619C18.6338 46.7448 15.1754 46.8619 14.7067 46.1179C14.0057 45.005 13.7655 42.3113 13.7331 41.1035C13.7331 29.7807 13.8629 26.1898 18.3093 22.9871C20.9057 22.1783 24.6057 20.0755 24.6057 16.1934C24.6057 13.0554 23.8754 13.1521 23.9566 9.85263C23.9795 8.91877 24.3612 7.40929 25 5.99999C25.0975 5.78493 24.9537 5.53267 24.7172 5.52167C22.9083 5.43753 16.598 5.00261 12.4348 5.00001C8.1967 4.99737 2.06085 5.43564 0.282525 5.5218ZM1.5 16.1934C1.5 13.0554 2.08065 13.1521 1.99954 9.85263C1.9778 8.96801 1.57571 7.8581 0.999542 6.49999C0.999542 6.49999 7.95763 5.84264 12.4995 5.84264C17.0415 5.84264 23.9995 6.49999 23.9995 6.49999C23.4234 7.8581 23.0213 8.96801 22.9995 9.85263C22.9184 13.1521 23.5 13.0554 23.5 16.1934C23.5 20.0755 16.4389 23 12.4995 23C8.56018 23 1.5 20.0755 1.5 16.1934Z" fill="#FDFDFD"/>
</g>
<defs>
<clipPath id="clip0">
<rect width="25" height="50" fill="white"/>
</clipPath>
</defs>
</svg>
