<svg width="25" height="50" viewBox="0 0 25 50" fill="none" xmlns="http://www.w3.org/2000/svg">
<path fill-rule="evenodd" clip-rule="evenodd" d="M9.30589 29.3155L9.29551 29.3129C9.00002 29.2366 8.72901 29.1667 8.47435 29.126" fill="#FDFDFD"/>
<path fill-rule="evenodd" clip-rule="evenodd" d="M15.6941 29.3155L15.7045 29.3129C16 29.2366 16.271 29.1667 16.5257 29.126" fill="#FDFDFD"/>
<path fill-rule="evenodd" clip-rule="evenodd" d="M5.18453 35.1291C5.20485 33.1168 5.53523 31.29 6.00485 29.973C6.24001 29.3136 6.50652 28.7921 6.77901 28.4398C7.05617 28.0815 7.31066 27.9337 7.51994 27.9337C8.1625 27.9337 8.55359 28.1141 9.05159 28.3438C9.15007 28.3892 9.25273 28.4366 9.36234 28.4848C10.0304 28.779 10.8939 29.0695 12.5013 29.0695C14.1087 29.0695 14.9696 28.779 15.6377 28.4848C15.7473 28.4366 15.8499 28.3892 15.9484 28.3438C16.4464 28.1141 16.8375 27.9337 17.4801 27.9337C17.6893 27.9337 17.9438 28.0815 18.221 28.4398C18.4935 28.7921 18.76 29.3136 18.9951 29.973C19.4648 31.29 19.7952 33.1168 19.8155 35.1291C19.8409 37.6433 19.3773 39.88 18.7714 41.4827C18.4681 42.2849 18.1321 42.9206 17.8097 43.3513C17.6484 43.5668 17.4948 43.7251 17.3556 43.828C17.2152 43.9317 17.1024 43.9695 17.0181 43.9695C16.7803 43.9695 16.5677 43.8951 16.329 43.7683C16.2086 43.7044 16.0847 43.6289 15.9476 43.5443L15.9042 43.5174C15.7805 43.441 15.647 43.3585 15.5025 43.2758C14.846 42.9001 13.9664 42.5232 12.5032 42.5093H12.5005C11.0373 42.5232 10.154 42.9001 9.4975 43.2758C9.353 43.3585 9.21946 43.441 9.09584 43.5174L9.05235 43.5443C8.91526 43.6289 8.79142 43.7044 8.67103 43.7683C8.43229 43.8951 8.21974 43.9695 7.98188 43.9695C7.89758 43.9695 7.78483 43.9317 7.6444 43.828C7.50518 43.7251 7.35162 43.5668 7.19032 43.3513C6.86786 42.9206 6.53185 42.2849 6.22859 41.4827C5.62271 39.88 5.15915 37.6433 5.18453 35.1291ZM7.6346 29.1276C7.91616 29.0697 8.18953 29.0805 8.47435 29.126C8.72901 29.1667 9.00002 29.2366 9.29551 29.3129L9.30589 29.3155C9.601 29.3917 9.92691 29.4759 10.3042 29.5512C10.888 29.6677 11.6001 29.7636 12.5013 29.7725C13.4025 29.7636 14.112 29.6677 14.6958 29.5512C15.0731 29.4759 15.399 29.3917 15.6941 29.3155L15.7045 29.3129C16 29.2366 16.271 29.1667 16.5257 29.126C16.8105 29.0805 17.0838 29.0697 17.3654 29.1276C17.5966 29.1751 17.7831 29.3474 17.9319 29.558C18.083 29.7717 18.2146 30.052 18.33 30.3677C18.5611 31.0001 18.7411 31.8151 18.8727 32.6298C19.0457 33.7018 19.1378 34.7925 19.1482 35.5021C19.1573 36.1283 19.0812 37.185 18.934 38.2937C18.7957 39.3356 18.5928 40.438 18.333 41.2845C18.2036 41.7062 18.0563 42.0772 17.8889 42.3471C17.7288 42.605 17.5103 42.8338 17.2234 42.8338C16.8663 42.8338 16.5339 42.6499 16.2121 42.4261C16.0574 42.3185 15.9023 42.2002 15.7415 42.0775C15.3637 41.7892 14.9539 41.4766 14.4408 41.2203C13.9093 40.9549 13.2797 40.7599 12.5013 40.7516C11.7229 40.7599 11.0907 40.9549 10.5592 41.2203C10.0461 41.4766 9.63626 41.7892 9.25848 42.0775C9.09768 42.2002 8.94259 42.3185 8.78791 42.4261C8.46607 42.6499 8.13366 42.8338 7.77657 42.8338C7.48969 42.8338 7.27122 42.605 7.11115 42.3471C6.94368 42.0772 6.79639 41.7062 6.66699 41.2845C6.40724 40.438 6.20431 39.3356 6.066 38.2937C5.91883 37.185 5.84268 36.1283 5.85182 35.5021C5.86218 34.7925 5.95426 33.7018 6.12734 32.6298C6.25888 31.8151 6.43892 31.0001 6.67004 30.3677C6.7854 30.052 6.91704 29.7717 7.06806 29.558C7.2169 29.3474 7.40338 29.1751 7.6346 29.1276Z" fill="#FDFDFD"/>
<path d="M14.7609 31.2034C14.7011 30.7295 14.6377 30.2924 14.581 30.0129C14.0603 30.108 13.4477 30.1836 12.7066 30.2017V32.1252C12.7066 32.5641 12.7452 32.9603 12.8392 33.2393C12.9336 33.5196 13.0546 33.6125 13.1942 33.6125C13.7182 33.6125 14.3582 33.506 14.6603 33.3835C14.7141 33.3618 14.7792 33.2905 14.8383 33.1552C14.8922 33.0318 14.9244 32.8928 14.9379 32.7975C14.8992 32.3985 14.834 31.7836 14.7609 31.2034Z" fill="#FDFDFD"/>
<path d="M10.2391 31.2034C10.2989 30.7295 10.3623 30.2924 10.419 30.0129C10.9397 30.108 11.5523 30.1836 12.2934 30.2017V32.1252C12.2934 32.5641 12.2548 32.9603 12.1608 33.2393C12.0664 33.5196 11.9454 33.6125 11.8058 33.6125C11.2818 33.6125 10.6418 33.506 10.3397 33.3835C10.2859 33.3618 10.2208 33.2905 10.1617 33.1552C10.1078 33.0318 10.0756 32.8928 10.0621 32.7975C10.1008 32.3985 10.166 31.7836 10.2391 31.2034Z" fill="#FDFDFD"/>
<path d="M8.36483 30.0088C8.42735 29.8254 8.4878 29.6793 8.54204 29.5767C8.73911 29.615 8.95251 29.6698 9.19777 29.7331L9.21083 29.7365C9.45005 29.7983 9.71592 29.8669 10.0157 29.9321C9.95381 30.2397 9.88973 30.6892 9.8321 31.1464C9.75669 31.7446 9.68973 32.3782 9.65107 32.7794L9.64872 32.8038L9.65161 32.8281L9.65379 32.8455C9.66564 32.9551 9.63971 33.0937 9.58367 33.1855C9.55708 33.2291 9.52926 33.2533 9.50446 33.2651C9.48234 33.2756 9.44882 33.2832 9.39431 33.2681C9.26084 33.2311 9.09857 33.2026 8.93789 33.1761L8.86943 33.1649L8.83969 33.1601C8.70787 33.1387 8.57722 33.1174 8.45366 33.0924C8.29818 33.061 8.16859 33.0263 8.0755 32.9851C7.99796 32.9507 7.97574 32.925 7.97125 32.9198L7.97031 32.9188C7.89596 32.6824 7.87923 32.48 7.87923 32.4227C7.87923 32.1258 7.97644 31.4981 8.12321 30.8723C8.19583 30.5627 8.27888 30.2609 8.36483 30.0088Z" fill="#FDFDFD"/>
<path d="M6.8314 32.6281C6.73495 32.5971 6.64096 32.5624 6.56065 32.5304C6.68694 31.7886 6.85182 31.0743 7.05324 30.5231C7.16191 30.2257 7.27766 29.9859 7.39741 29.8164C7.51933 29.6439 7.62696 29.5699 7.71324 29.5522C7.84228 29.5257 7.97212 29.5167 8.10873 29.522C8.06291 29.6266 8.01938 29.7423 7.97838 29.8625C7.88632 30.1326 7.79944 30.4494 7.72459 30.7685C7.57729 31.3965 7.46987 32.0627 7.46862 32.4165C7.46516 32.472 7.44128 32.5589 7.39619 32.6282C7.35182 32.6963 7.30703 32.7201 7.2633 32.7201C7.16255 32.7201 7.00415 32.6837 6.8314 32.6281Z" fill="#FDFDFD"/>
<path d="M16.6352 30.0088C16.5727 29.8254 16.5122 29.6793 16.458 29.5767C16.2609 29.615 16.0475 29.6698 15.8022 29.7331L15.7892 29.7365C15.5499 29.7983 15.2841 29.8669 14.9843 29.9321C15.0462 30.2397 15.1103 30.6892 15.1679 31.1464C15.2433 31.7446 15.3103 32.3782 15.3489 32.7794L15.3513 32.8038L15.3484 32.8281L15.3462 32.8455C15.3344 32.9551 15.3603 33.0937 15.4163 33.1855C15.4429 33.2291 15.4707 33.2533 15.4955 33.2651C15.5177 33.2756 15.5512 33.2832 15.6057 33.2681C15.7392 33.2311 15.9014 33.2026 16.0621 33.1761L16.1306 33.1649L16.1603 33.1601C16.2921 33.1387 16.4228 33.1174 16.5463 33.0924C16.7018 33.061 16.8314 33.0263 16.9245 32.9851C17.002 32.9507 17.0243 32.925 17.0287 32.9198L17.0297 32.9188C17.104 32.6824 17.1208 32.48 17.1208 32.4227C17.1208 32.1258 17.0236 31.4981 16.8768 30.8723C16.8042 30.5627 16.7211 30.2609 16.6352 30.0088Z" fill="#FDFDFD"/>
<path d="M18.1686 32.6281C18.2651 32.5971 18.359 32.5624 18.4394 32.5304C18.3131 31.7886 18.1482 31.0743 17.9468 30.5231C17.8381 30.2257 17.7223 29.9859 17.6026 29.8164C17.4807 29.6439 17.373 29.5699 17.2868 29.5522C17.1577 29.5257 17.0279 29.5167 16.8913 29.522C16.9371 29.6266 16.9806 29.7423 17.0216 29.8625C17.1137 30.1326 17.2006 30.4494 17.2754 30.7685C17.4227 31.3965 17.5301 32.0627 17.5314 32.4165C17.5348 32.472 17.5587 32.5589 17.6038 32.6282C17.6482 32.6963 17.693 32.7201 17.7367 32.7201C17.8374 32.7201 17.9959 32.6837 18.1686 32.6281Z" fill="#FDFDFD"/>
<path d="M17.4648 38.3601C17.3736 38.5979 17.2967 38.8995 17.2468 39.1399C17.239 39.1837 17.2311 39.2246 17.2233 39.2617C17.2194 39.6678 17.1202 40.3312 16.9871 40.9348C16.9187 41.2451 16.8398 41.5464 16.7573 41.7962C16.712 41.9332 16.6624 42.0653 16.6083 42.1773C16.8429 42.3231 17.0388 42.4011 17.2234 42.4011C17.2883 42.4011 17.3997 42.3448 17.5452 42.1103C17.6833 41.8878 17.8172 41.559 17.9423 41.1514C18.1854 40.3592 18.3807 39.3174 18.5172 38.3097C18.4442 38.2033 18.3253 38.1358 18.1668 38.0954C17.99 38.0504 17.7963 38.0475 17.6309 38.0474C17.6243 38.0538 17.6131 38.066 17.5978 38.088C17.5566 38.1467 17.511 38.2394 17.4648 38.3601Z" fill="#FDFDFD"/>
<path d="M14.9394 38.5769C14.9389 39.0518 14.9195 39.5996 14.8842 40.0648C14.8663 40.2999 14.8441 40.5166 14.8178 40.6936C14.8064 40.7699 14.7935 40.8449 14.7782 40.9135C15.2572 41.1732 15.6667 41.4854 16.0159 41.7517C16.1016 41.817 16.1837 41.8796 16.2623 41.9379C16.295 41.8643 16.3313 41.7696 16.3695 41.6539C16.4458 41.4231 16.5209 41.1376 16.5872 40.8369C16.7208 40.2309 16.8128 39.5909 16.8128 39.2372V39.2166L16.8165 39.1964C16.8245 39.1523 16.8338 39.1046 16.8442 39.0541C16.8735 38.8877 16.9002 38.6757 16.9032 38.482C16.9047 38.3846 16.9002 38.2969 16.8888 38.2246C16.877 38.1496 16.8601 38.1065 16.8473 38.0862C16.8291 38.0575 16.7666 38.0022 16.6339 37.9363C16.5101 37.8749 16.3537 37.8179 16.1868 37.7691C15.8525 37.6712 15.5107 37.6159 15.3549 37.6147C15.3509 37.6165 15.3299 37.6262 15.2923 37.6702C15.2431 37.7279 15.1897 37.817 15.1382 37.9289C15.0378 38.1466 14.964 38.407 14.9394 38.5769Z" fill="#FDFDFD"/>
<path d="M12.7066 40.325C13.359 40.3576 13.9141 40.5126 14.396 40.7255C14.4013 40.6958 14.4067 40.6629 14.4121 40.6265C14.4363 40.4644 14.4574 40.2595 14.4749 40.0303C14.5097 39.5724 14.5287 39.0292 14.5287 38.5612V38.5481L14.5302 38.5351C14.546 38.3983 14.5551 38.1856 14.5329 37.9977C14.5218 37.9034 14.5039 37.8258 14.4811 37.77C14.4574 37.7123 14.4369 37.7 14.4369 37.7C14.3888 37.6747 14.2845 37.6432 14.1313 37.6153C13.9844 37.5886 13.8106 37.5682 13.637 37.5568C13.4631 37.5454 13.2935 37.5431 13.1545 37.5514C13.0849 37.5555 13.0259 37.5621 12.9794 37.5707C12.9358 37.5787 12.9126 37.5867 12.9039 37.5905L12.903 37.5916C12.899 37.596 12.8833 37.6135 12.8614 37.6608C12.8332 37.7213 12.807 37.8044 12.7841 37.9027C12.7393 38.0956 12.715 38.3151 12.7066 38.4595V40.325Z" fill="#FDFDFD"/>
<path d="M12.2934 40.325C11.641 40.3576 11.0859 40.5126 10.604 40.7255C10.5987 40.6958 10.5933 40.6629 10.5879 40.6265C10.5637 40.4644 10.5426 40.2595 10.5251 40.0303C10.4903 39.5724 10.4713 39.0292 10.4713 38.5612V38.5481L10.4698 38.5351C10.454 38.3983 10.4449 38.1856 10.4671 37.9977C10.4782 37.9034 10.4961 37.8258 10.5189 37.77C10.5426 37.7123 10.5631 37.7 10.5631 37.7C10.6112 37.6747 10.7155 37.6432 10.8687 37.6153C11.0156 37.5886 11.1894 37.5682 11.363 37.5568C11.5369 37.5454 11.7065 37.5431 11.8455 37.5514C11.9151 37.5555 11.9741 37.5621 12.0206 37.5707C12.0642 37.5787 12.0873 37.5867 12.0961 37.5905L12.097 37.5916C12.101 37.596 12.1167 37.6135 12.1386 37.6608C12.1668 37.7213 12.193 37.8044 12.2159 37.9027C12.2607 38.0956 12.285 38.3151 12.2934 38.4595V40.325Z" fill="#FDFDFD"/>
<path d="M10.0606 38.5769C10.0611 39.0518 10.0805 39.5996 10.1158 40.0648C10.1337 40.2999 10.1559 40.5166 10.1822 40.6936C10.1936 40.7699 10.2065 40.8449 10.2218 40.9135C9.74284 41.1732 9.33332 41.4854 8.98408 41.7517L8.98248 41.7529C8.89734 41.8178 8.81579 41.88 8.73768 41.9379C8.705 41.8643 8.66874 41.7696 8.63051 41.6539C8.55424 41.4231 8.47915 41.1376 8.41284 40.8369C8.2792 40.2309 8.18719 39.5909 8.18719 39.2372V39.2166L8.1835 39.1964C8.17546 39.1523 8.16618 39.1046 8.15576 39.0541C8.12651 38.8877 8.09985 38.6757 8.09679 38.482C8.09526 38.3846 8.09981 38.2969 8.11119 38.2246C8.12301 38.1496 8.13986 38.1065 8.15271 38.0862C8.1709 38.0575 8.23335 38.0022 8.36609 37.9363C8.48986 37.8749 8.64632 37.8179 8.81316 37.7691C9.14746 37.6712 9.48931 37.6159 9.6451 37.6147C9.64906 37.6165 9.67008 37.6262 9.70766 37.6702C9.75693 37.7279 9.81028 37.817 9.86184 37.9289C9.96217 38.1466 10.036 38.407 10.0606 38.5769Z" fill="#FDFDFD"/>
<path d="M7.53523 38.3601C7.62635 38.5979 7.70329 38.8995 7.75324 39.1399C7.761 39.1837 7.76893 39.2246 7.77669 39.2617C7.78061 39.6678 7.87976 40.3312 8.01288 40.9348C8.0813 41.2451 8.16019 41.5464 8.24272 41.7962C8.28797 41.9332 8.33762 42.0653 8.39171 42.1773C8.15707 42.3231 7.96118 42.4011 7.77657 42.4011C7.71172 42.4011 7.60031 42.3448 7.45482 42.1103C7.31673 41.8878 7.18277 41.559 7.0577 41.1514C6.8146 40.3592 6.61933 39.3174 6.48285 38.3097C6.55583 38.2033 6.67472 38.1358 6.83319 38.0954C7.01 38.0504 7.20374 38.0475 7.36907 38.0474C7.37574 38.0538 7.38686 38.066 7.40224 38.088C7.44338 38.1467 7.48897 38.2394 7.53523 38.3601Z" fill="#FDFDFD"/>
<path fill-rule="evenodd" clip-rule="evenodd" d="M12.5008 1.00002L12.4987 1L12.4966 1.00002C10.8429 1.01808 8.35854 1.09661 6.2805 1.27384C5.24265 1.36236 4.2993 1.47604 3.60991 1.62073C3.26682 1.69274 2.97558 1.77463 2.76454 1.8699C2.65962 1.91727 2.56307 1.97294 2.48877 2.04103C2.4149 2.10873 2.34278 2.20812 2.33616 2.34073C2.29515 3.16161 2.0968 6.55594 1.97724 8.12171L1.97207 8.18941L2.33587 8.84655V9.17774C2.12115 9.38111 1.8296 9.67558 1.57656 9.97083C1.43595 10.1349 1.30376 10.3032 1.20282 10.4589C1.10774 10.6056 1.01894 10.7727 1.00262 10.9275C0.996594 10.9846 1.00189 11.0556 1.00919 11.1236C1.0171 11.1972 1.03 11.2887 1.04664 11.3962C1.06966 11.5449 1.10092 11.7312 1.13823 11.9535C1.1548 12.0522 1.17255 12.158 1.19131 12.2707C1.31372 13.0067 1.48158 14.0562 1.65107 15.4344C1.99004 18.1907 2.33587 22.2647 2.33587 27.7715C2.33587 30.4148 2.22069 32.5182 2.10555 34.0415C2.05008 34.7753 1.99462 35.3746 1.9519 35.8362L1.94707 35.8884C1.9044 36.3497 1.87393 36.6818 1.87393 36.8575C1.87393 37.1268 1.89165 37.3325 1.91515 37.4829C1.93 37.5779 1.94843 37.6593 1.96983 37.7228C1.93602 37.9479 1.89211 38.2757 1.85967 38.5985C1.82489 38.9447 1.80049 39.31 1.82385 39.5315C1.84652 39.7464 1.89582 39.9043 1.96429 40.0151C1.98419 40.0473 2.00769 40.0782 2.03443 40.1056C2.01416 40.2568 1.99516 40.4463 1.98828 40.6365C1.97931 40.8844 1.98854 41.1769 2.07017 41.3776C2.17727 41.6409 2.362 41.8183 2.51305 41.9204L2.0706 44.0797C1.95529 44.2125 1.80105 44.4465 1.67891 44.7508C1.538 45.1018 1.43482 45.5586 1.49027 46.076L1.49438 46.1144C1.53819 46.5241 1.58809 46.9907 1.8131 47.4421C2.04447 47.9063 2.44906 48.3343 3.16813 48.7008C4.58897 49.4249 7.28905 49.9327 12.4987 50C17.7083 49.9327 20.411 49.4249 21.8319 48.7008C22.5509 48.3343 22.9555 47.9063 23.1869 47.4421C23.4119 46.9907 23.4618 46.5241 23.5056 46.1144L23.5097 46.076C23.5652 45.5586 23.462 45.1018 23.3211 44.7508C23.1989 44.4465 23.0447 44.2125 22.9294 44.0797L22.4869 41.9204C22.638 41.8183 22.8227 41.6409 22.9298 41.3776C23.0115 41.1769 23.0207 40.8844 23.0117 40.6365C23.0048 40.4463 22.9858 40.2568 22.9656 40.1056C22.9923 40.0782 23.0158 40.0473 23.0357 40.0151C23.1042 39.9043 23.1535 39.7464 23.1761 39.5315C23.1995 39.31 23.1751 38.9447 23.1403 38.5985C23.1079 38.2757 23.064 37.9479 23.0302 37.7228C23.0516 37.6593 23.07 37.5779 23.0848 37.4829C23.1084 37.3325 23.1261 37.1268 23.1261 36.8575C23.1261 36.6818 23.0956 36.3497 23.0529 35.8884L23.0481 35.8362C23.0054 35.3746 22.9499 34.7753 22.8945 34.0415C22.7793 32.5182 22.6641 30.4148 22.6641 27.7715C22.6641 22.2647 23.01 18.1907 23.3489 15.4344C23.5184 14.0562 23.6863 13.0067 23.8087 12.2707L23.8594 11.9678L23.8607 11.9597L23.8611 11.9574L23.8618 11.9535C23.8991 11.7312 23.9303 11.5449 23.9534 11.3962C23.97 11.2887 23.9829 11.1972 23.9908 11.1236C23.9981 11.0556 24.0034 10.9846 23.9974 10.9275C23.9811 10.7727 23.8923 10.6056 23.7972 10.4589C23.6962 10.3032 23.564 10.1349 23.4234 9.97083C23.1704 9.67558 22.8788 9.38111 22.6641 9.17774V8.84655L23.0279 8.18941L23.0228 8.12171C22.9032 6.55594 22.7048 3.16161 22.6638 2.34073C22.6572 2.20812 22.5851 2.10873 22.5112 2.04103C22.4369 1.97294 22.3404 1.91727 22.2355 1.8699C22.0244 1.77463 21.7332 1.69274 21.3901 1.62073C20.7007 1.47604 19.7573 1.36236 18.7195 1.27384C16.6415 1.09661 14.1571 1.01808 12.5034 1.00002H12.5008ZM2.74649 9.37262L2.67682 9.43723C2.54354 9.56081 2.36678 9.73346 2.18673 9.92328C2.27234 9.88795 2.36231 9.85352 2.45655 9.82016C3.29651 9.52282 4.49979 9.30186 6.03144 9.30186C8.31126 9.30186 9.69605 10.3615 10.6455 11.4106C10.9534 11.7507 11.2239 12.1005 11.4584 12.4036C11.5774 12.5575 11.6872 12.6994 11.7878 12.8219C11.9427 13.0106 12.0769 13.1555 12.2005 13.2527C12.3235 13.3495 12.4188 13.3852 12.4987 13.3852C12.5786 13.3852 12.6765 13.3495 12.7995 13.2527C12.9231 13.1555 13.0573 13.0106 13.2122 12.8219C13.3128 12.6994 13.4226 12.5575 13.5416 12.4036C13.7761 12.1005 14.0466 11.7507 14.3545 11.4106C15.304 10.3615 16.6887 9.30186 18.9686 9.30186C20.5002 9.30186 21.7035 9.52282 22.5434 9.82016C22.6377 9.85352 22.7277 9.88795 22.8133 9.92328C22.6332 9.73346 22.4565 9.56081 22.3232 9.43723L22.2535 9.37262V8.93803C22.0719 8.87909 21.7659 8.81663 21.3312 8.75711C20.7915 8.6832 20.0796 8.6168 19.219 8.56119C17.4985 8.44999 15.1906 8.38244 12.4987 8.38244C9.8068 8.38244 7.50146 8.44999 5.78096 8.56119C4.92045 8.6168 4.20854 8.6832 3.66877 8.75711C3.23408 8.81663 2.92814 8.87909 2.74649 8.93803V9.37262ZM6.33748 2.14231C5.30383 2.23047 4.37951 2.34259 3.71397 2.48228C3.25597 2.56547 3.11894 2.7406 3.10768 2.81776C3.07875 3.39157 2.96793 4.88059 2.86324 6.28706C2.82149 6.84811 2.78071 7.39602 2.74649 7.86746C2.84192 7.84974 2.91043 7.83212 2.97835 7.81465C3.10783 7.78135 3.23518 7.74859 3.54283 7.71673C4.20729 7.6479 5.04911 7.58179 6.00042 7.52422C7.90315 7.40907 10.2489 7.32781 12.4987 7.32781C14.7485 7.32781 17.0969 7.40907 18.9996 7.52422C19.9509 7.58179 20.7927 7.6479 21.4572 7.71673C21.7648 7.74859 21.8922 7.78135 22.0217 7.81465C22.0896 7.83212 22.1581 7.84974 22.2535 7.86746C22.2193 7.39602 22.1785 6.84811 22.1368 6.28706C22.0321 4.88059 21.9212 3.39157 21.8923 2.81776C21.8811 2.7406 21.744 2.56547 21.286 2.48228C20.6205 2.34259 19.6962 2.23047 18.6625 2.14231C16.5985 1.96627 14.1709 1.88795 12.5225 1.8699C10.8742 1.88795 8.40152 1.96627 6.33748 2.14231ZM1.60565 11.9956C1.58066 11.9252 1.55502 11.8585 1.52869 11.7953L1.54195 11.8744C1.55861 11.9737 1.5766 12.0808 1.59576 12.196C1.71876 12.9355 1.88773 13.9919 2.05829 15.3788C2.0899 15.6358 2.1236 15.9042 2.15874 16.1839C2.50278 18.9233 2.98428 22.7573 2.98428 27.7715C2.98428 30.4283 2.9135 32.5434 2.79767 34.0759C2.74473 34.7762 2.69026 35.3642 2.64833 35.817L2.64172 35.8884L2.63685 35.941C2.5929 36.416 2.56564 36.7194 2.56564 36.8682C2.56564 37.1181 2.58213 37.3 2.6014 37.4232C2.61918 37.5369 2.63738 37.588 2.64079 37.5976L2.64124 37.5991L2.67733 37.6657L2.66561 37.7413C2.63189 37.959 2.58369 38.3105 2.5491 38.6547C2.51373 39.0068 2.49535 39.3265 2.51305 39.4944C2.52667 39.5905 2.60265 39.7719 2.79767 39.729C2.88368 39.6622 2.99095 39.5265 3.09137 39.2451C3.19182 38.9637 3.28065 38.5497 3.33741 37.9449C3.39501 37.3314 3.34258 37.0918 3.26068 36.7176L3.25904 36.7101C3.17114 36.3084 3.05504 35.7747 3.00301 34.5961L3.00279 34.591V34.586C3.00279 34.3699 3.04424 34.14 3.1001 33.906C3.13898 33.7431 3.18732 33.5688 3.23687 33.3901C3.25814 33.3134 3.27962 33.236 3.30068 33.1582C3.44328 32.6319 3.57717 32.0556 3.56742 31.4256C3.55498 30.6222 3.46914 30.1175 3.3838 29.6157L3.38134 29.6012C3.29412 29.0883 3.2081 28.5752 3.2081 27.7715C3.2081 26.2834 3.47221 25.214 3.86616 24.4041C4.26013 23.5941 4.7768 23.0587 5.2569 22.6306C5.74221 22.1979 6.28855 21.8518 6.73816 21.5833C6.83691 21.5244 6.93062 21.4693 7.01675 21.4188C7.13002 21.3523 7.23248 21.2921 7.32449 21.2358C7.4311 21.1706 7.50973 21.1187 7.56354 21.0782C7.52012 21.0628 7.4668 21.0469 7.40279 21.0299C7.30175 21.0032 7.17446 20.9744 7.02898 20.9416L6.91199 20.9151C6.63121 20.8513 6.2968 20.7719 5.95615 20.6639C4.77816 20.2904 3.33526 19.5262 2.806 17.6101C2.50897 16.5347 2.32083 15.4502 2.15305 14.483C2.09443 14.1451 2.03829 13.8215 1.98086 13.5176C1.86894 12.9254 1.75277 12.4101 1.60565 11.9956ZM11.7068 13.3684C12.1454 14.3251 12.1814 15.1532 12.165 15.6907C12.1386 16.5518 11.765 18.0807 10.8762 19.153L10.8305 19.8023C10.8285 20.3483 10.6199 20.9181 10.4314 21.4246L10.4205 21.454C10.2267 21.9745 10.0606 22.4206 10.0606 22.7958C10.0606 22.9639 10.1083 23.082 10.1784 23.1703C10.2514 23.2622 10.359 23.3345 10.4943 23.3872C10.769 23.4941 11.1121 23.5025 11.3453 23.4733L11.5748 23.4446V23.7693H13.4252V23.4446L13.6547 23.4733C13.8879 23.5025 14.231 23.4941 14.5057 23.3872C14.641 23.3345 14.7486 23.2622 14.8216 23.1703C14.8917 23.082 14.9394 22.9639 14.9394 22.7958C14.9394 22.4206 14.7733 21.9745 14.5795 21.454L14.5686 21.4246C14.3801 20.9181 14.1715 20.3483 14.1695 19.8023L14.1238 19.153C13.235 18.0807 12.8614 16.5518 12.835 15.6907C12.8186 15.1532 12.8546 14.3251 13.2932 13.3684C13.2108 13.4557 13.1283 13.534 13.0452 13.5994C12.8843 13.726 12.7011 13.8179 12.4987 13.8179C12.2963 13.8179 12.1157 13.726 11.9548 13.5994C11.8717 13.534 11.7892 13.4557 11.7068 13.3684ZM11.1642 23.9197C10.917 23.9258 10.6183 23.8967 10.352 23.793C10.1719 23.7229 9.99557 23.6143 9.86346 23.4479C9.72851 23.2779 9.65002 23.0603 9.65002 22.7958C9.65002 22.3364 9.84219 21.8214 10.0214 21.341L10.0492 21.2667C10.2446 20.7414 10.4199 20.2462 10.4199 19.7941V19.7861L10.477 18.9739L10.5244 18.9188C11.3668 17.938 11.73 16.4772 11.7546 15.6768C11.7789 14.8821 11.6879 13.3556 9.9993 11.7332C9.17236 10.9388 7.85538 10.5077 6.63699 10.3204C6.03209 10.2275 5.4614 10.1962 5.00338 10.2077C4.7743 10.2135 4.57578 10.2299 4.41673 10.254C4.25343 10.2786 4.14599 10.3094 4.09005 10.3366L4.03975 10.3609C3.88488 10.4357 3.74453 10.5035 3.61147 10.6158C3.47008 10.7351 3.33183 10.9106 3.224 11.2106C3.00294 11.8255 2.91205 12.955 3.2064 15.1395C3.49813 17.3047 4.08227 18.4212 4.7508 19.0286C4.84349 19.1128 4.93845 19.1879 5.03538 19.255C4.46826 18.7264 4.0782 17.9478 3.81522 17.1817C3.42512 16.0452 3.28718 14.8576 3.28545 14.3149C3.16863 12.9937 3.4703 12.0011 4.10183 11.3843C4.73349 10.7673 5.65162 10.569 6.67899 10.7377C7.70882 10.9068 8.7539 11.4474 9.53725 12.2237C10.3208 13.0001 10.858 14.0292 10.8305 15.1754C10.8038 16.2848 10.4763 17.2131 9.87785 17.8656C9.27798 18.5196 8.42573 18.8747 7.39162 18.8747C6.10789 18.8747 5.13143 18.4071 4.44952 17.5875C4.42524 17.5583 4.40136 17.5287 4.37788 17.4987C4.75987 18.4062 5.31467 19.1588 6.08902 19.3972C6.80486 19.6175 7.37284 19.6409 7.9636 19.5045C8.5634 19.366 9.19655 19.061 10.0436 18.6012L10.4618 18.3742L9.3696 22.4983H7.51994C7.21879 22.4983 6.96485 22.6967 6.75683 23.0714C6.54889 23.446 6.41082 23.9596 6.34064 24.4888C6.27066 25.0164 6.27083 25.5392 6.32624 25.9229C6.35423 26.1167 6.39433 26.2607 6.43777 26.35C6.45838 26.3924 6.47363 26.4113 6.48149 26.419C6.54027 26.4162 6.64714 26.3964 6.80724 26.3539C6.97455 26.3095 7.1823 26.2453 7.42136 26.1671C7.71057 26.0725 8.03922 25.9594 8.39123 25.8382L8.39269 25.8377C8.62405 25.7581 8.86549 25.675 9.11245 25.5914C9.73242 25.3816 10.382 25.1704 10.9713 25.0115C11.556 24.8539 12.1014 24.7428 12.5013 24.7428C12.9012 24.7428 13.444 24.8539 14.0287 25.0115C14.618 25.1704 15.2676 25.3816 15.8875 25.5914C16.1345 25.675 16.3759 25.7581 16.6073 25.8377L16.6088 25.8382C16.9608 25.9594 17.2894 26.0725 17.5786 26.1671C17.8177 26.2453 18.0255 26.3095 18.1928 26.3539C18.3529 26.3964 18.4597 26.4162 18.5185 26.419C18.5264 26.4113 18.5416 26.3924 18.5622 26.35C18.6057 26.2607 18.6458 26.1167 18.6738 25.9229C18.7292 25.5392 18.7293 25.0164 18.6594 24.4888C18.5892 23.9596 18.4511 23.446 18.2432 23.0714C18.0352 22.6967 17.7812 22.4983 17.4801 22.4983H15.6304L14.5382 18.3742L14.9564 18.6012C15.8035 19.061 16.4366 19.366 17.0364 19.5045C17.6272 19.6409 18.1951 19.6175 18.911 19.3972C19.6853 19.1588 20.2401 18.4062 20.6221 17.4987C20.5986 17.5287 20.5748 17.5583 20.5505 17.5875C19.8686 18.4071 18.8921 18.8747 17.6084 18.8747C16.5743 18.8747 15.722 18.5196 15.1221 17.8656C14.5237 17.2131 14.1962 16.2848 14.1695 15.1754C14.142 14.0292 14.6792 13.0001 15.4628 12.2237C16.2461 11.4474 17.2912 10.9068 18.321 10.7377C19.3484 10.569 20.2665 10.7673 20.8982 11.3843C21.5297 12.0011 21.8314 12.9937 21.7146 14.3149C21.7128 14.8576 21.5749 16.0452 21.1848 17.1817C20.9218 17.9478 20.5317 18.7264 19.9646 19.255C20.0616 19.1879 20.1565 19.1128 20.2492 19.0286C20.9177 18.4212 21.5019 17.3047 21.7936 15.1395C22.0879 12.955 21.9971 11.8255 21.776 11.2106C21.6682 10.9106 21.5299 10.7351 21.3885 10.6158C21.2555 10.5035 21.1151 10.4357 20.9603 10.3609L20.91 10.3366C20.854 10.3094 20.7466 10.2786 20.5833 10.254C20.4242 10.2299 20.2257 10.2135 19.9966 10.2077C19.5386 10.1962 18.9679 10.2275 18.363 10.3204C17.1446 10.5077 15.8276 10.9388 15.0007 11.7332C13.3121 13.3556 13.2211 14.8821 13.2454 15.6768C13.27 16.4772 13.6332 17.938 14.4756 18.9188L14.523 18.9739L14.5801 19.7861V19.7941C14.5801 20.2462 14.7554 20.7414 14.9508 21.2667L14.9786 21.341C15.1578 21.8214 15.35 22.3364 15.35 22.7958C15.35 23.0603 15.2715 23.2779 15.1365 23.4479C15.0044 23.6143 14.8281 23.7229 14.648 23.793C14.3817 23.8967 14.083 23.9258 13.8358 23.9197V24.2019H11.1642V23.9197ZM10.3207 16.0507C10.3787 15.7761 10.4124 15.4803 10.42 15.1645C10.4438 14.1743 9.98013 13.2565 9.25594 12.5388C8.53155 11.821 7.56203 11.3206 6.61576 11.1652C5.66702 11.0094 4.89134 11.2031 4.38097 11.7016C3.87207 12.1987 3.5834 13.0415 3.69513 14.2842C3.80818 15.5416 4.15795 16.5807 4.75829 17.3022C4.89988 17.4724 5.05641 17.6262 5.22865 17.7617C4.6775 17.0768 4.3955 16.1781 4.46683 15.3663C4.53337 14.6091 4.7669 13.787 5.23558 13.166C5.71149 12.5355 6.42359 12.123 7.40604 12.1959C9.37009 12.3416 10.3429 14.2584 10.3429 15.6837C10.3429 15.8043 10.3355 15.927 10.3207 16.0507ZM7.96756 26.4384C8.44218 26.4967 8.81313 26.6696 9.20829 26.8537C9.3011 26.8969 9.39525 26.9408 9.49239 26.9839C10.1244 27.2647 10.9533 27.5551 12.5013 27.5551C14.0493 27.5551 14.8756 27.2647 15.5076 26.9839C15.6048 26.9408 15.6989 26.8969 15.7917 26.8537C16.1869 26.6696 16.5578 26.4967 17.0324 26.4384C16.8555 26.3783 16.669 26.3141 16.4763 26.2478C16.245 26.1682 16.0046 26.0855 15.762 26.0034C15.1437 25.7941 14.5037 25.5861 13.9269 25.4307C13.3455 25.2739 12.8431 25.1754 12.4987 25.1754C12.1543 25.1754 11.6545 25.2739 11.0731 25.4307C10.4963 25.5861 9.85635 25.7941 9.23804 26.0034C8.99537 26.0855 8.75504 26.1682 8.52365 26.2478C8.33102 26.3141 8.14446 26.3783 7.96756 26.4384ZM5.55695 13.4353C5.15306 13.9704 4.93748 14.7032 4.8757 15.4062C4.75653 16.7624 5.78882 18.3902 7.39462 18.442C8.99632 18.4401 9.93232 16.9476 9.93232 15.6837C9.93232 14.4049 9.05739 12.7522 7.3772 12.6275C6.53752 12.5652 5.95361 12.9098 5.55695 13.4353ZM9.0289 27.2438C8.52089 27.0084 8.13753 26.8308 7.52666 26.8519C7.20967 26.8629 6.83774 27.0638 6.44693 27.4735C6.05972 27.8795 5.67488 28.4695 5.33371 29.205C4.65173 30.6753 4.15799 32.6979 4.15799 34.9105C4.15799 38.0539 4.64282 40.5634 5.37499 42.2786C6.11453 44.011 7.07067 44.8619 7.98188 44.8619C8.41571 44.8619 8.71172 44.7785 8.95876 44.658C9.15161 44.5639 9.31356 44.4492 9.49868 44.318C9.56093 44.2739 9.6258 44.2279 9.69535 44.1803C9.96597 43.9948 10.2815 43.8044 10.7264 43.662C11.1696 43.5201 11.7352 43.4287 12.5013 43.4287C13.2674 43.4287 13.8304 43.5201 14.2736 43.662C14.7185 43.8044 15.034 43.9948 15.3047 44.1803C15.3742 44.2279 15.4391 44.2739 15.5013 44.318C15.6864 44.4492 15.8484 44.5639 16.0412 44.658C16.2883 44.7785 16.5843 44.8619 17.0181 44.8619C17.9293 44.8619 18.8855 44.011 19.625 42.2786C20.3572 40.5634 20.842 38.0539 20.842 34.9105C20.842 32.6979 20.3483 30.6753 19.6663 29.205C19.3251 28.4695 18.9403 27.8795 18.5531 27.4735C18.1623 27.0638 17.7903 26.8629 17.4733 26.8519C16.8625 26.8308 16.4791 27.0084 15.9711 27.2438C15.8751 27.2883 15.7745 27.335 15.6671 27.3826C14.9903 27.6833 14.1073 27.9878 12.4987 27.9878C10.8901 27.9878 10.0097 27.6833 9.33288 27.3826C9.22555 27.335 9.12494 27.2883 9.0289 27.2438ZM3.5164 43.8614C2.86213 43.8614 2.55419 44.1362 2.42161 44.3178L2.41202 44.3309L2.40064 44.3424C2.32985 44.4136 2.17821 44.6177 2.05709 44.9194C2.04638 44.946 2.03594 44.9734 2.02585 45.0014C2.14424 44.8623 2.2915 44.7492 2.48334 44.6885C2.673 44.6285 2.89097 44.6246 3.14497 44.6766C3.44181 44.7374 3.64775 44.9232 3.80867 45.1394C3.9261 45.2971 4.03121 45.4886 4.1317 45.6716C4.16324 45.7291 4.19435 45.7858 4.22521 45.8402C4.49279 46.3126 4.7966 46.7331 5.44673 46.8385C5.9453 46.9193 6.72159 47.032 7.48465 47.032C7.86603 47.032 8.23836 47.0038 8.56771 46.9318C8.89872 46.8593 9.17305 46.7455 9.36999 46.5841C10.2264 45.8822 11.2846 45.3487 12.4987 45.3487C13.7128 45.3487 14.7736 45.8822 15.63 46.5841C15.8269 46.7455 16.1013 46.8593 16.4323 46.9318C16.7616 47.0038 17.134 47.032 17.5154 47.032C18.2784 47.032 19.0547 46.9193 19.5533 46.8385C20.2034 46.7331 20.5072 46.3126 20.7748 45.8402C20.8056 45.7858 20.8368 45.7291 20.8683 45.6716C20.9688 45.4886 21.0739 45.2971 21.1913 45.1394C21.3523 44.9232 21.5582 44.7374 21.855 44.6766C22.109 44.6246 22.327 44.6285 22.5167 44.6885C22.7085 44.7492 22.8558 44.8623 22.9741 45.0014C22.9641 44.9734 22.9536 44.946 22.9429 44.9194C22.8218 44.6177 22.6701 44.4136 22.5994 44.3424L22.588 44.3309L22.5784 44.3178C22.4458 44.1362 22.1379 43.8614 21.4836 43.8614C21.3709 43.8614 21.1914 43.9203 20.9902 44.0544C20.7938 44.1852 20.5967 44.3748 20.4468 44.6055C20.4263 44.6371 20.4052 44.6704 20.3833 44.7048C20.2364 44.936 20.0538 45.2232 19.7758 45.4543C19.4466 45.728 18.9961 45.9165 18.327 45.9165C18.2407 45.9165 18.1558 45.9173 18.0721 45.9182L18.0356 45.9186C17.6331 45.9229 17.2567 45.927 16.8825 45.8519C16.406 45.7563 15.9357 45.5356 15.3748 45.0571C14.6046 44.4002 13.6613 44.2129 12.4987 44.2129C11.3361 44.2129 10.3954 44.4002 9.62522 45.0571C9.06429 45.5356 8.59395 45.7563 8.11752 45.8519C7.74333 45.927 7.36689 45.9229 6.96442 45.9186L6.92795 45.9182C6.8442 45.9173 6.7593 45.9165 6.67304 45.9165C6.00394 45.9165 5.55344 45.728 5.22419 45.4543C4.94617 45.2232 4.76364 44.936 4.61673 44.7048C4.59483 44.6704 4.57367 44.6371 4.55315 44.6055C4.40335 44.3748 4.20621 44.1852 4.00977 44.0544C3.80863 43.9203 3.62914 43.8614 3.5164 43.8614ZM23.3943 11.9956C23.4193 11.9252 23.445 11.8585 23.4713 11.7953L23.458 11.8744C23.4414 11.9737 23.4234 12.0808 23.4042 12.196C23.2812 12.9355 23.1123 13.9919 22.9417 15.3788C22.9101 15.6358 22.8764 15.9042 22.8413 16.1839C22.4972 18.9233 22.0157 22.7573 22.0157 27.7715C22.0157 30.4283 22.0865 32.5434 22.2023 34.0759C22.2553 34.7762 22.3097 35.3642 22.3517 35.817L22.3583 35.8884L22.3632 35.941C22.4071 36.416 22.4344 36.7194 22.4344 36.8682C22.4344 37.1181 22.4179 37.3 22.3986 37.4232C22.3808 37.5369 22.3626 37.588 22.3592 37.5976L22.3588 37.5991L22.3227 37.6657L22.3344 37.7413C22.3681 37.959 22.4163 38.3105 22.4509 38.6547C22.4863 39.0068 22.5046 39.3265 22.4869 39.4944C22.4733 39.5905 22.3974 39.7719 22.2023 39.729C22.1163 39.6622 22.0091 39.5265 21.9086 39.2451C21.8082 38.9637 21.7193 38.5497 21.6626 37.9449C21.605 37.3314 21.6574 37.0918 21.7393 36.7176L21.741 36.7101C21.8289 36.3084 21.945 35.7747 21.997 34.5961L21.9972 34.591V34.586C21.9972 34.3699 21.9558 34.14 21.8999 33.906C21.861 33.7431 21.8127 33.5688 21.7631 33.3901C21.7419 33.3134 21.7204 33.236 21.6993 33.1582C21.5567 32.6319 21.4228 32.0556 21.4326 31.4256C21.445 30.6222 21.5309 30.1175 21.6162 29.6157L21.6187 29.6012C21.7059 29.0883 21.7919 28.5752 21.7919 27.7715C21.7919 26.2834 21.5278 25.214 21.1338 24.4041C20.7399 23.5941 20.2232 23.0587 19.7431 22.6306C19.2578 22.1979 18.7114 21.8518 18.2618 21.5833C18.1631 21.5244 18.0694 21.4693 17.9833 21.4188C17.87 21.3523 17.7675 21.2921 17.6755 21.2358C17.5689 21.1706 17.4903 21.1187 17.4365 21.0782C17.4799 21.0628 17.5332 21.0469 17.5972 21.0299C17.6983 21.0032 17.8255 20.9744 17.971 20.9416L18.088 20.9151C18.3688 20.8513 18.7032 20.7719 19.0439 20.6639C20.2218 20.2904 21.6647 19.5262 22.194 17.6101C22.491 16.5347 22.6792 15.4502 22.8469 14.483C22.9056 14.1451 22.9617 13.8215 23.0191 13.5176C23.1311 12.9254 23.2472 12.4101 23.3943 11.9956ZM14.6793 16.0507C14.6213 15.7761 14.5876 15.4803 14.58 15.1645C14.5562 14.1743 15.0199 13.2565 15.7441 12.5388C16.4684 11.821 17.438 11.3206 18.3842 11.1652C19.333 11.0094 20.1087 11.2031 20.619 11.7016C21.1279 12.1987 21.4166 13.0415 21.3049 14.2842C21.1918 15.5416 20.842 16.5807 20.2417 17.3022C20.1001 17.4724 19.9436 17.6262 19.7714 17.7617C20.3225 17.0768 20.6045 16.1781 20.5332 15.3663C20.4666 14.6091 20.2331 13.787 19.7644 13.166C19.2885 12.5355 18.5764 12.123 17.594 12.1959C15.6299 12.3416 14.6571 14.2584 14.6571 15.6837C14.6571 15.8043 14.6645 15.927 14.6793 16.0507ZM19.443 13.4353C19.8469 13.9704 20.0625 14.7032 20.1243 15.4062C20.2435 16.7624 19.2112 18.3902 17.6054 18.442C16.0037 18.4401 15.0677 16.9476 15.0677 15.6837C15.0677 14.4049 15.9426 12.7522 17.6228 12.6275C18.4625 12.5652 19.0464 12.9098 19.443 13.4353Z" fill="#FDFDFD"/>
</svg>
