<svg width="25" height="50" viewBox="0 0 25 50" fill="none" xmlns="http://www.w3.org/2000/svg">
<path fill-rule="evenodd" clip-rule="evenodd" d="M2.5 47.5L2 25.4679C2 25.4679 2.01889 25.3899 2.67921 25.2975C3.63582 25.1638 6.93866 25 12.4806 25C18.0225 25 21.3642 25.1638 22.3208 25.2975C22.9811 25.3899 23 25.4679 23 25.4679L22.5 47.5C22.5 47.5 21.6216 50 12.4806 50C3.3396 50 2.5 47.5 2.5 47.5ZM12.4807 45.254C3.58487 45.254 3.5 43 3.5 43L3 26.7045C3.95662 26.5708 6.93866 26.1364 12.4806 26.1364C18.0225 26.1364 21.0434 26.5708 22 26.7045L21.5 43C21.5 43 21.3764 45.254 12.4807 45.254Z" fill="#FDFDFD"/>
</svg>
