<svg width="25" height="50" viewBox="0 0 25 50" fill="none" xmlns="http://www.w3.org/2000/svg">
<path fill-rule="evenodd" clip-rule="evenodd" d="M24.9848 0.986408L25 0.679584C25 0.679584 24 1.65801e-05 12.5 1.65801e-05C1 1.65801e-05 0 0.679584 0 0.679584L0.0151906 0.986408C0.085006 2.39656 0.353271 5.72839 0.84131 8.20281C1.32868 10.6738 2.03969 13.297 3.00336 15.2503C3.96869 17.2069 5.41299 18.6676 6.78518 20.0553C7.13149 20.4056 7.47321 20.7512 7.80148 21.0989C9.44103 22.8358 10.7907 24.6599 10.9621 27.484C11.317 33.333 11.315 39.4007 10.9643 41.9442C10.7913 43.1982 10.4626 44.0206 10.1035 44.5941C9.74479 45.167 9.34613 45.5081 8.997 45.7958C8.94774 45.8364 8.83845 45.8956 8.65219 45.9659C8.47327 46.0334 8.24773 46.1022 7.98733 46.1713C7.46688 46.3093 6.82788 46.4431 6.18589 46.5671C5.7863 46.6443 5.39085 46.7168 5.02378 46.784C4.79964 46.8251 4.58583 46.8643 4.38823 46.9014C4.12971 46.9499 3.89918 46.9949 3.71371 47.0355C3.53547 47.0744 3.37747 47.1136 3.27773 47.153C3.12985 47.2115 2.91591 47.2974 2.71449 47.4049C2.52303 47.5071 2.29668 47.6523 2.16511 47.8474C2.09479 47.9517 2.04252 48.0837 2.05221 48.236C2.06193 48.3887 2.13156 48.5239 2.23396 48.6385C2.42732 48.8548 2.77762 49.0431 3.28914 49.2216C3.7217 49.3725 4.36362 49.4945 5.10382 49.5941C5.8495 49.6944 6.71399 49.7743 7.60215 49.8357C9.37693 49.9585 11.2589 50.0085 12.4997 49.9988C13.5935 50.0086 15.4755 49.9585 17.2865 49.8358C18.1929 49.7743 19.0849 49.6945 19.8534 49.5943C20.6156 49.4948 21.2772 49.3729 21.7109 49.2216C22.2224 49.0431 22.5727 48.8548 22.766 48.6385C22.8684 48.5239 22.9381 48.3887 22.9478 48.236C22.9575 48.0837 22.9052 47.9517 22.8349 47.8474C22.7033 47.6523 22.477 47.5071 22.2855 47.4049C22.0841 47.2974 21.8701 47.2115 21.7223 47.153C21.6225 47.1136 21.4645 47.0744 21.2863 47.0355C21.1008 46.9949 20.8703 46.9499 20.6118 46.9014C20.4141 46.8643 20.2004 46.8251 19.9762 46.784C19.6091 46.7168 19.2137 46.6443 18.8141 46.5671C18.1721 46.4431 17.5331 46.3093 17.0127 46.1713C16.7523 46.1022 16.5267 46.0334 16.3478 45.9659C16.1615 45.8956 16.0523 45.8364 16.003 45.7958C15.6539 45.5081 15.2552 45.167 14.8965 44.5941C14.5374 44.0206 14.2087 43.1982 14.0357 41.9442C13.685 39.4007 13.683 33.333 14.0379 27.484C14.2093 24.6599 15.559 22.8358 17.1985 21.0989C17.5268 20.7512 17.8685 20.4056 18.2148 20.0553C19.587 18.6676 21.0313 17.2069 21.9966 15.2503C22.9603 13.297 23.6713 10.6738 24.1587 8.20281C24.6467 5.72839 24.915 2.39656 24.9848 0.986408ZM24 1.66599C24 1.66599 24 0.986425 12.5 0.986425C1 0.986425 1 1.66599 1 1.66599C1.31125 4.55449 1.76429 9.26091 3.53299 12.7004C5.3675 16.268 8.19154 19.0418 12.5 19.0418C16.8085 19.0418 19.6325 16.268 21.467 12.7004C23.2357 9.26091 23.6888 4.55449 24 1.66599Z" fill="#FDFDFD"/>
</svg>
