<svg width="25" height="50" viewBox="0 0 25 50" fill="none" xmlns="http://www.w3.org/2000/svg">
<g clip-path="url(#clip0)">
<path d="M1.61496 12.1222C1 12.1222 0.940191 13.0909 1 13.1113C1 13.1113 1.52802 13.118 1.9339 13.1113C3.72997 13.0813 8.93088 13 12.5 13C16.0691 13 21.2701 13.0813 23.0662 13.1113C23.4721 13.1181 24 13.1113 24 13.1113C24.0598 13.0909 24 12.1222 23.385 12.1222C23.385 12.1222 16.7511 12 12.5 12C8.24885 12 1.61496 12.1222 1.61496 12.1222Z" fill="#FDFDFD"/>
<path d="M1 13.1113C1.05981 13.1316 0.0223409 14.5252 0.000117744 16.5209C-0.0300423 19.2294 5.74168 23.3837 8.33338 24.4834C11.3836 27.2937 11.3437 28.3119 11.4634 37.2111C11.5165 39.4784 11.3118 44.3061 10.0678 45.4791C9.27038 45.9271 9.05108 46.09 8.79191 46.3751C8.53274 46.6602 4.52556 48.045 4.06703 48.5745C3.6085 49.1039 4.09279 49.3842 4.22652 49.4298C4.58537 49.5519 7.0376 50 12.5 50C17.9625 50 20.3748 49.552 20.7336 49.4298C20.8673 49.3843 21.3516 49.104 20.8931 48.5745C20.4346 48.045 16.4274 46.6602 16.1682 46.3751C15.9091 46.09 15.6898 45.9271 14.8923 45.4791C13.6483 44.3061 13.4436 39.4784 13.4968 37.2112C13.6164 28.3119 13.6164 27.2937 16.6666 24.4834C19.2583 23.3837 25.03 19.2294 24.9999 16.5209C24.9777 14.5252 23.9402 13.1317 24 13.1113C24 13.1113 23.4721 13.1181 23.0662 13.1113C24.063 14.731 24 15.4619 24 16.5209C24 19.7792 14.0151 25 12.5 25C10.9849 25 1 19.7792 1 16.5209C1 15.462 0.937088 14.731 1.9339 13.1113C1.52802 13.118 1 13.1113 1 13.1113Z" fill="#FDFDFD"/>
</g>
<defs>
<clipPath id="clip0">
<rect width="25" height="50" fill="white"/>
</clipPath>
</defs>
</svg>
