<svg width="25" height="50" viewBox="0 0 25 50" fill="none" xmlns="http://www.w3.org/2000/svg">
<path fill-rule="evenodd" clip-rule="evenodd" d="M4.60771 47.8541L4 2.39529C4 2.39529 4.0169 2.32937 4.60771 2.25137C5.46363 2.13836 7.52407 2 12.4826 2C17.4412 2 19.5364 2.13836 20.3923 2.25137C20.9831 2.32937 21 2.39529 21 2.39529L20.3923 47.8541C20.3923 47.8541 20.6614 50 12.4826 50C4.30386 50 4.60771 47.8541 4.60771 47.8541ZM12.4827 45.0306C5.41804 45.0306 5.78947 43.0541 5.78947 43.0541L4.89474 3.44C5.75066 3.32699 7.52407 2.96 12.4826 2.96C17.4412 2.96 19.2493 3.32699 20.1053 3.44L19.2105 43.0541C19.2105 43.0541 19.5473 45.0306 12.4827 45.0306Z" fill="#FDFDFD"/>
</svg>
