<svg width="108" height="108" viewBox="0 0 108 108" fill="none" xmlns="http://www.w3.org/2000/svg">
<path d="M74.3899 51.0924C71.6545 50.9896 69.8562 50.4342 69.8562 47.6436H79.6489C79.6489 50.4342 77.8506 50.9896 75.1152 51.0924C75.1152 51.0924 74.9339 51.8546 74.9339 54.0056C74.9339 56.1567 75.1152 58.7376 75.1152 58.7376C75.1152 58.7376 77.8354 58.7376 77.8354 59.1013H71.6696C71.6696 58.7376 74.3899 58.7376 74.3899 58.7376C74.3899 58.7376 74.5712 56.1567 74.5712 54.0056C74.5712 51.8546 74.3899 51.0924 74.3899 51.0924Z" fill="white"/>
<path d="M30.0322 48.5976L30.6851 48.597H39.1721L39.825 48.5976V48H30.0322V48.5976Z" fill="white"/>
<path fill-rule="evenodd" clip-rule="evenodd" d="M53.2645 53.5362L37.4049 37.6309L38.3281 36.705L54.1878 52.6103L70.0474 36.705L70.9707 37.6309L55.1111 53.5362L70.9707 69.4415L70.0474 70.3674L54.1878 54.4621L38.3281 70.3674L37.4049 69.4415L53.2645 53.5362Z" fill="white"/>
<path fill-rule="evenodd" clip-rule="evenodd" d="M53.9998 104L4 54L54 4L104 54L53.9998 104ZM96.4703 53.9999L54 11.4074L11.5295 54.0001L53.9998 96.5926L96.4703 53.9999Z" fill="white"/>
<path d="M55.3063 67.6678H55.5124V65.976H52.8723V67.6678H53.0794V68.7572C53.0653 69.6776 52.9657 70.1266 52.8723 70.3478C52.83 70.448 52.7932 70.4907 52.7731 70.5106C52.7508 70.5327 52.7216 70.5541 52.6527 70.5908C52.6457 70.5946 52.6378 70.5986 52.629 70.603L52.6034 70.6157C52.4505 70.6912 52.1218 70.8534 51.8989 71.2193C51.6646 71.604 51.5763 72.1362 51.5763 72.8801V72.8903L51.8933 83.1385C51.9097 83.6688 52.343 84.0902 52.8721 84.0902H55.5034C56.0324 84.0902 56.4658 83.6688 56.4822 83.1385L56.7991 72.8903V72.8801C56.7991 72.1366 56.7116 71.6052 56.4791 71.221C56.2576 70.8548 55.9304 70.6922 55.7784 70.6166L55.7772 70.616C55.7584 70.6066 55.7423 70.5986 55.7295 70.5917C55.6614 70.5551 55.6327 70.5339 55.6109 70.5122C55.5911 70.4925 55.5545 70.4497 55.5124 70.3493C55.4193 70.1275 55.3204 69.6778 55.3063 68.7572V67.6678Z" fill="white"/>
<path d="M54.7363 40.127C53.0998 40.127 51.7158 39.7428 50.5842 38.9746C49.4525 38.189 48.5995 37.1327 48.025 35.8057C47.4679 34.4614 47.1893 32.9599 47.1893 31.3012C47.1893 29.6076 47.4679 28.0974 48.025 26.7705C48.5995 25.4261 49.4525 24.3698 50.5842 23.6016C51.7332 22.8159 53.1433 22.4231 54.8146 22.4231C55.8418 22.4231 56.7558 22.5715 57.5566 22.8683C58.3574 23.1651 58.9842 23.5754 59.4368 24.0992C59.8895 24.623 60.1158 25.2253 60.1158 25.9062C60.1158 26.7094 59.8808 27.3728 59.4107 27.8966C58.9407 28.4029 58.3487 28.6561 57.6349 28.6561C57.2693 28.6561 57.0865 28.5601 57.0865 28.368C57.0865 28.3331 57.1562 28.2109 57.2955 28.0014C57.4348 27.7744 57.5566 27.5212 57.6611 27.2419C57.7655 26.9451 57.8177 26.6046 57.8177 26.2205C57.8177 25.4872 57.5392 24.8936 56.9821 24.4396C56.4424 23.9682 55.7199 23.7325 54.8146 23.7325C53.6482 23.7325 52.6907 24.0992 51.9421 24.8325C51.2109 25.5658 50.6799 26.5086 50.3491 27.6609C50.0183 28.7958 49.853 30.0092 49.853 31.3012C49.853 32.6107 50.0619 33.8154 50.4797 34.9153C50.8975 36.0153 51.4895 36.8882 52.2555 37.5342C53.0389 38.1628 53.9355 38.477 54.9452 38.477C55.9549 38.477 56.8341 38.2937 57.5827 37.9271C58.3487 37.543 58.9581 37.0192 59.4107 36.3557C59.4629 36.2859 59.5152 36.251 59.5674 36.251C59.7241 36.251 59.8895 36.3295 60.0636 36.4867C60.2377 36.6263 60.3247 36.7747 60.3247 36.9319C60.3247 36.9843 60.3073 37.0454 60.2725 37.1152C58.8797 39.123 57.0343 40.127 54.7363 40.127Z" fill="white"/>
<path d="M39.4986 59L39.825 48.5976L39.1721 48.597C39.1721 48.597 39.1721 55.7803 38.5193 56.6782C37.8664 57.5761 36.4794 57.5761 34.9286 57.5761C33.3778 57.5761 31.9908 57.5761 31.3379 56.6782C30.6851 55.7803 30.6851 48.597 30.6851 48.597L30.0322 48.5976L30.3586 59H39.4986Z" fill="white"/>
</svg>
