<svg width="50" height="20" viewBox="0 0 50 20" fill="none" xmlns="http://www.w3.org/2000/svg">
<path d="M24.9315 5.25252C28.3279 2.42424 32.7102 0 39.2466 0C45.783 0 49.5783 4.84848 47.4698 3.43434C45.3613 2.0202 41.3551 1.21212 39.2466 1.21212C37.1381 1.21212 31.8668 1.61616 26.3846 5.85858C19.5169 11.1733 17.1072 14.1414 10.5708 13.1313C17.318 12.5252 21.5351 8.08081 24.9315 5.25252Z" fill="white"/>
<path fill-rule="evenodd" clip-rule="evenodd" d="M48.5241 12.1212C48.5241 15.9596 44.7287 18.788 41.3551 18.788C40.0119 18.788 38.8692 18.4036 37.9803 17.8645C38.9051 16.7573 39.0357 15.5538 39.0357 15.1515C39.0357 14.3434 38.614 12.7273 36.9272 12.7273C35.0296 12.7273 34.8187 14.3434 34.8187 15.1516C34.8187 15.5626 34.9278 16.757 35.839 17.8319C34.8823 18.3881 33.6191 18.788 32.0777 18.788C29.3039 18.788 27.8275 17.7003 25.7996 16.2064C25.5221 16.0019 25.2116 15.7735 24.9087 15.5556C25.1195 16.5657 26.7619 20 32.0777 20C34.3776 20 35.9224 19.4832 36.958 18.7823C37.9259 19.376 39.3275 19.798 41.3551 19.798C47.4698 19.798 50 15.1516 50 12.1212C50 9.09081 47.2589 3.63636 39.6683 3.63636C32.0776 3.63636 26.5955 8.0808 23.4327 11.1111C20.27 14.1414 14.5769 16.7677 9.93821 16.7677C5.29947 16.7677 1.71501 14.7475 1.29331 11.3131C1.02231 9.10613 2.98013 6.86868 5.2995 6.86868C7.61886 6.86868 8.8049 8.28282 9.01575 9.89898C9.14754 10.9091 8.46226 12.1212 7.19715 12.1212C6.49782 12.1212 5.8231 11.6183 5.51035 11.3131C5.25733 11.0662 5.2995 10.9517 5.2995 11.3131C5.2995 12.1212 6.5646 12.7273 7.19715 12.7273C8.71528 12.7273 10.1491 11.9192 9.93821 9.69697C9.68902 7.0707 7.40801 5.85858 5.2995 5.85858C4.03439 5.85858 -0.393496 6.66666 0.028198 11.7172C0.416157 16.3636 5.93204 18.3838 9.93821 18.1818C14.1494 17.9695 20.9951 15.8708 24.9087 12.1212C29.7583 7.47475 33.9753 4.84848 39.6683 4.84848C43.8853 4.84848 48.5241 8.28283 48.5241 12.1212ZM36.9272 13.7375C37.5598 13.7375 37.9815 14.1413 37.9815 15.1515C37.9815 15.657 37.6148 16.3733 36.9119 17.0367C36.2397 16.3734 35.873 15.6571 35.873 15.1516C35.873 14.182 36.2947 13.7375 36.9272 13.7375Z" fill="white"/>
</svg>
